<?xml version="1.0" standalone="no"?><!DOCTYPE svg PUBLIC "-//W3C//DTD SVG 1.1//EN" "http://www.w3.org/Graphics/SVG/1.1/DTD/svg11.dtd"><svg t="1754063559713" class="icon" viewBox="0 0 1024 1024" version="1.1" xmlns="http://www.w3.org/2000/svg" p-id="17912" data-darkreader-inline-fill="" xmlns:xlink="http://www.w3.org/1999/xlink" width="128" height="128"><path d="M512 21.333333a64 64 0 0 1 25.386667 122.752L554.666667 213.333333h85.333333a298.666667 298.666667 0 0 1 270.250667 171.306667C962.090667 390.869333 1002.666667 445.525333 1002.666667 512c0 66.474667-40.533333 121.173333-92.458667 127.402667A298.709333 298.709333 0 0 1 640 810.666667H384a298.666667 298.666667 0 0 1-270.250667-171.306667C61.909333 633.130667 21.333333 578.474667 21.333333 512c0-66.474667 40.533333-121.173333 92.458667-127.402667A298.709333 298.709333 0 0 1 384 213.333333h85.333333l17.322667-69.205333A64 64 0 0 1 512 21.333333zM640 298.666667H384a213.333333 213.333333 0 0 0 0 426.666666h256a213.333333 213.333333 0 0 0 0-426.666666z m-277.333333 149.333333a64 64 0 1 1 0 128 64 64 0 0 1 0-128z m298.666666 0a64 64 0 1 1 0 128 64 64 0 0 1 0-128z" p-id="17913"></path></svg>