<?xml version="1.0" standalone="no"?><!DOCTYPE svg PUBLIC "-//W3C//DTD SVG 1.1//EN" "http://www.w3.org/Graphics/SVG/1.1/DTD/svg11.dtd"><svg t="1756802948492" class="icon" viewBox="0 0 1026 1024" version="1.1" xmlns="http://www.w3.org/2000/svg" p-id="46458" xmlns:xlink="http://www.w3.org/1999/xlink" width="128.25" height="128"><path d="M981.386535 556.688662h-153.569286a44.791042 44.791042 0 0 1 0-89.582083h153.569286a44.791042 44.791042 0 0 1 0 89.582083zM971.148583 1005.238952a42.231554 42.231554 0 0 1-21.115777-5.758848l-133.093381-78.704259a46.070786 46.070786 0 0 1-15.996801-63.987203 41.591682 41.591682 0 0 1 58.228354-16.636672l133.093382 81.263747a46.710658 46.710658 0 0 1 15.9968 63.987202 42.871426 42.871426 0 0 1-37.112577 19.836033zM838.055202 186.842631a42.871426 42.871426 0 0 1-37.112578-22.39552 46.070786 46.070786 0 0 1 15.996801-63.987203L950.032806 24.315137a42.231554 42.231554 0 0 1 58.228354 16.636673 46.710658 46.710658 0 0 1-15.9968 63.987202l-133.093382 76.144771a43.511298 43.511298 0 0 1-21.115776 5.758848zM579.546903 12.157568L256.41153 262.987403H64.449923a63.987203 63.987203 0 0 0-63.987203 71.665666v354.489103a63.987203 63.987203 0 0 0 63.987203 71.665666h191.961607l325.694861 250.829834c40.95181 31.353729 95.340932 0 95.340932-59.508098V71.665667C674.887835 14.717057 620.498713-19.196161 579.546903 12.157568zM283.286155 558.608278a31.353729 31.353729 0 0 1-30.713857 31.993602 30.713857 30.713857 0 0 1-30.713857-31.993602V465.186963a30.713857 30.713857 0 0 1 30.713857-31.993602 31.353729 31.353729 0 0 1 30.713857 31.993602z" fill="#666666" p-id="46459"></path></svg>