<?xml version="1.0" standalone="no"?><!DOCTYPE svg PUBLIC "-//W3C//DTD SVG 1.1//EN" "http://www.w3.org/Graphics/SVG/1.1/DTD/svg11.dtd"><svg t="1756820928236" class="icon" viewBox="0 0 1024 1024" version="1.1" xmlns="http://www.w3.org/2000/svg" p-id="49962" xmlns:xlink="http://www.w3.org/1999/xlink" width="128" height="128"><path d="M624.938667 268.970667l3.114666-3.584a32 32 0 0 1 41.642667-3.114667l3.584 3.114667 213.205333 213.205333a32 32 0 0 1 3.114667 41.642667l-3.114667 3.626666-213.162666 213.461334a32 32 0 0 1-48.384-41.642667l3.072-3.584 158.336-158.592H160a32 32 0 0 1-31.701333-27.605333L128 501.546667a32 32 0 0 1 27.648-31.701334l4.352-0.298666 626.901333-0.042667L628.053333 310.613333a32 32 0 0 1-3.114666-41.642666l3.114666-3.584-3.114666 3.584z" fill="#212121" p-id="49963"></path></svg>