<?xml version="1.0" standalone="no"?><!DOCTYPE svg PUBLIC "-//W3C//DTD SVG 1.1//EN" "http://www.w3.org/Graphics/SVG/1.1/DTD/svg11.dtd"><svg t="1757942474642" class="icon" viewBox="0 0 1024 1024" version="1.1" xmlns="http://www.w3.org/2000/svg" p-id="100730" xmlns:xlink="http://www.w3.org/1999/xlink" width="128" height="128"><path d="M512 183.466667a328.533333 328.533333 0 1 0 0 657.066666 328.533333 328.533333 0 0 0 0-657.066666zM106.666667 512a405.333333 405.333333 0 1 1 810.666666 0 405.333333 405.333333 0 0 1-810.666666 0z" p-id="100731"></path><path d="M361.130667 662.869333l68.693333-206.08a42.666667 42.666667 0 0 1 27.008-26.965333l206.037333-68.693333-68.693333 206.08a42.666667 42.666667 0 0 1-27.008 26.965333l-206.037333 68.693333z m178.005333-123.733333a38.4 38.4 0 1 0-54.272-54.272 38.4 38.4 0 0 0 54.272 54.272z" p-id="100732"></path></svg>