<?xml version="1.0" standalone="no"?><!DOCTYPE svg PUBLIC "-//W3C//DTD SVG 1.1//EN" "http://www.w3.org/Graphics/SVG/1.1/DTD/svg11.dtd"><svg t="1756138468307" class="icon" viewBox="0 0 1066 1024" version="1.1" xmlns="http://www.w3.org/2000/svg" p-id="8878" xmlns:xlink="http://www.w3.org/1999/xlink" width="133.25" height="128"><path d="M465.841254 186.459379L308.446741 0.009386h-178.770131l157.394514 185.938002h178.77013z m463.693025 0L772.267764 0.564043h-178.770131l157.863839 185.938002z m-231.590517 0L540.549249 0.564043h-178.770131l157.43718 185.895336z m298.661316-186.449993h-171.132934l157.863838 185.938002H1066.662489V70.194796A69.289425 69.289425 0 0 0 996.775741 0.009386zM76.301567 0.009386h-6.911877A68.265444 68.265444 0 0 0 0.014933 69.682805v116.264583h234.235804L76.301567 0.009386zM0.014933 954.317622A68.265444 68.265444 0 0 0 69.38969 1023.99104h927.386051a68.265444 68.265444 0 0 0 69.374757-69.673418V233.09321H0.014933z m370.852023-511.692166c0-39.679289 32.554083-58.62295 69.374757-58.622949a73.982674 73.982674 0 0 1 37.332664 9.130503l264.144601 153.597248a65.790821 65.790821 0 0 1 27.220845 88.958406 63.998853 63.998853 0 0 1-27.220845 27.348843l-264.144601 153.597248a67.966782 67.966782 0 0 1-37.332664 9.130503c-37.332664 0-69.374757-18.772997-69.374757-58.40962z" p-id="8879"></path></svg>