<?xml version="1.0" standalone="no"?><!DOCTYPE svg PUBLIC "-//W3C//DTD SVG 1.1//EN" "http://www.w3.org/Graphics/SVG/1.1/DTD/svg11.dtd"><svg t="1756969812466" class="icon" viewBox="0 0 1024 1024" version="1.1" xmlns="http://www.w3.org/2000/svg" p-id="90641" xmlns:xlink="http://www.w3.org/1999/xlink" width="128" height="128"><path d="M512 73.143A438.857 438.857 0 0 1 844.434 798.5l167.79 163.108a36.06 36.06 0 0 1 0.366 51.273l-0.366 0.366a36.571 36.571 0 0 1-51.346 0.366L792.357 849.7A438.857 438.857 0 1 1 512 73.143z m0 73.143a365.714 365.714 0 1 0 0 731.428 365.714 365.714 0 0 0 0-731.428z" fill="#515151" p-id="90642"></path><path d="M423.497 373.029l5.12 4.169 83.09 83.383 83.164-83.383 5.12-4.243a36.571 36.571 0 0 1 46.665 55.955l-83.237 83.383 83.164 83.602a36.571 36.571 0 0 1-46.665 55.881l-5.12-4.242-83.164-83.383-83.09 83.383-5.12 4.242a36.571 36.571 0 0 1-46.665-55.881l83.31-83.602-83.237-83.383a36.571 36.571 0 0 1 46.665-55.955z" fill="#515151" p-id="90643"></path></svg>