<?xml version="1.0" standalone="no"?><!DOCTYPE svg PUBLIC "-//W3C//DTD SVG 1.1//EN" "http://www.w3.org/Graphics/SVG/1.1/DTD/svg11.dtd"><svg t="1754136229679" class="icon" viewBox="0 0 1024 1024" version="1.1" xmlns="http://www.w3.org/2000/svg" p-id="3085" data-darkreader-inline-fill="" xmlns:xlink="http://www.w3.org/1999/xlink" width="128" height="128"><path d="M682.51388333 407.72419222V287.3877786H232.24740878v432.32778792h257.57554213c6.48846128 34.89592443 19.35633294 67.44727864 37.29501957 96.07284153H187.20985644c-24.86334638 0-45.03755234-21.42827847-45.09207728-47.98189583v-480.36420868H97.13475176v-48.09094571c0-26.55361736 20.17420596-48.0909457 45.03755234-48.09094672H322.32251346v-95.96379166c0-26.6081423 20.17420596-48.0909457 45.03755234-48.0909457h180.09568545c24.91787132 0 45.09207728 21.53732834 45.09207727 48.0909457v96.0183166h180.09568443c24.86334638 0 45.03755234 21.4828034 45.03755234 47.98189685v48.0909457h-45.09207728v117.66469481a234.5115166 234.5115166 0 0 0-90.07510468 2.67171881z m-180.15020936-24.31809702h90.07510468v65.81153259a264.82735149 264.82735149 0 0 0-89.96605481 121.2088126l-0.10904987-187.02034519z m-89.96605481-240.07305498v48.0909457h90.07510468v-48.0909457H412.39761916z m0 480.30968476H322.32251346v-240.23662978h90.0751057v240.23662978z m401.41217975-170.88098042L969.53286137 874.89338064h-82.93234519l-37.94931779-108.7771394h-136.03957991l-37.94931779 108.7771394H587.8586881l155.72306246-422.13163608h70.22804835z m19.4653828 260.13821208l-53.43438434-174.47962212h-1.79932085l-45.63732664 174.47962212h100.87103183z" fill="#000000" p-id="3086" style="--darkreader-inline-fill: var(--darkreader-background-000000, #000000);" data-darkreader-inline-fill=""></path></svg>