<?xml version="1.0" standalone="no"?><!DOCTYPE svg PUBLIC "-//W3C//DTD SVG 1.1//EN" "http://www.w3.org/Graphics/SVG/1.1/DTD/svg11.dtd"><svg t="1743828677218" class="icon" viewBox="0 0 1024 1024" version="1.1" xmlns="http://www.w3.org/2000/svg" p-id="7831" xmlns:xlink="http://www.w3.org/1999/xlink" width="256" height="256"><path d="M256 85.333333H42.666667a42.666667 42.666667 0 0 0 0 85.333334h938.666666a42.666667 42.666667 0 0 0 0-85.333334H768a85.333333 85.333333 0 0 0-85.333333-85.333333H341.333333a85.333333 85.333333 0 0 0-85.333333 85.333333zM170.666667 256h682.666666v597.333333a170.666667 170.666667 0 0 1-170.666666 170.666667H341.333333a170.666667 170.666667 0 0 1-170.666666-170.666667V256z m173.226666 170.666667v426.666666h85.333334V426.666667h-85.333334z m253.952 0v426.666666h85.333334V426.666667h-85.333334z" fill="#818C95" p-id="7832"></path></svg>