<?xml version="1.0" standalone="no"?><!DOCTYPE svg PUBLIC "-//W3C//DTD SVG 1.1//EN" "http://www.w3.org/Graphics/SVG/1.1/DTD/svg11.dtd"><svg t="1743603225337" class="icon" viewBox="0 0 1024 1024" version="1.1" xmlns="http://www.w3.org/2000/svg" p-id="11085" xmlns:xlink="http://www.w3.org/1999/xlink" width="256" height="256"><path d="M449.39776 431.40096c-42.8032-12.20096-76.8-48.19968-80.79872-92.40064C362.79808 276.60288 411.8016 224 473.00096 224h6.99904v-48a16.04608 16.04608 0 0 1 16-16h32a16.04608 16.04608 0 0 1 16 16v47.80032h2.80064a140.55424 140.55424 0 0 1 85.80096 28.99968c7.80288 6.00064 9.00096 17.39776 2.00192 24.3968l-22.79936 22.79936c-5.20192 5.4016-13.60384 6.79936-19.60448 2.40128a77.15328 77.15328 0 0 0-45.19936-14.60224H473.20064c-22.59968 0-41.00096 18.39616-41.00096 41.00096a41.10336 41.10336 0 0 0 29.80352 39.3984l118.20032 33.80224c55.6032 16 90.39872 76.40064 70.20032 135.59808-14.80192 43.20256-57.79968 70.4-103.3984 70.4h-2.80064v48a16.04608 16.04608 0 0 1-16 16h-32a16.04608 16.04608 0 0 1-16-16v-48h-2.80064a140.544 140.544 0 0 1-85.80096-28.99968c-7.79776-6.00064-9.00096-17.39776-2.00192-24.40192l22.79936-22.79936c5.1968-5.4016 13.59872-6.79936 19.59936-2.40128a77.15328 77.15328 0 0 0 45.19936 14.60224h73.79968c22.59968 0 41.00096-18.40128 41.00096-41.00096a41.09824 41.09824 0 0 0-29.80352-39.3984zM960 576c35.39968 0 64 28.8 64 64v320c0 35.2-28.60032 64-64 64h-896C28.60032 1024 0 995.2 0 960V640c0-35.2 28.60032-64 64-64H128c-20.59776-49.19808-32-103.19872-32-160C96 186.19904 282.19904 0 512 0s416 186.19904 416 416c0 56.80128-11.40224 110.80192-32 160h64zM512 64c-194.00192 0-352 157.99808-352 352S317.99808 768 512 768s352-157.99808 352-352S706.00192 64 512 64z m448 896V640h-97.80224c-33.19808 51.59936-77.19936 95.40096-129.19808 128h83.00032a16.04608 16.04608 0 0 1 16 16v32a16.04608 16.04608 0 0 1-16 16H208a16.04608 16.04608 0 0 1-16-16v-32A16.04608 16.04608 0 0 1 208 768h83.00032c-51.99872-32.59904-96-76.40064-129.19808-128H64v320h896z" p-id="11086"></path></svg>