<?xml version="1.0" standalone="no"?><!DOCTYPE svg PUBLIC "-//W3C//DTD SVG 1.1//EN" "http://www.w3.org/Graphics/SVG/1.1/DTD/svg11.dtd"><svg t="1743603218682" class="icon" viewBox="0 0 1029 1024" version="1.1" xmlns="http://www.w3.org/2000/svg" p-id="10942" xmlns:xlink="http://www.w3.org/1999/xlink" width="257.25" height="256"><path d="M507.079956 824.044351c227.58359 0 412.022176-184.407047 412.022175-412.022175S734.695084 0 507.079956 0 95.05778 184.407047 95.05778 412.022176 279.464827 824.044351 507.079956 824.044351zM463.114944 192.954047V159.68067a32.800296 32.800296 0 0 1 32.894912-32.894912h21.982506a32.800296 32.800296 0 0 1 32.894912 32.894912v33.683381c30.6872 1.576937 60.428237 12.07934 85.186152 30.497967a22.203277 22.203277 0 0 1 2.365406 33.872613l-32.295676 30.6872c-7.53776 7.316989-18.828631 7.53776-27.722557 1.986941a65.064433 65.064433 0 0 0-35.260318-10.092399h-77.049156c-17.819391 0-32.295676 16.242454-32.295676 36.238019 0 16.242454 9.903166 30.6872 23.969447 34.850314l123.411112 37.058027c50.903536 15.264753 86.573857 64.181348 86.573858 119.058765 0 67.335222-52.291241 121.834175-117.071825 123.600345v33.273377a32.800296 32.800296 0 0 1-32.894912 32.894912h-21.982506a32.800296 32.800296 0 0 1-32.894912-32.894912V630.711839a156.179869 156.179869 0 0 1-85.186152-30.497967 22.203277 22.203277 0 0 1-2.365406-33.872613l32.295676-30.6872c7.53776-7.316989 18.828631-7.53776 27.722557-1.986941 10.691635 6.749292 22.581742 10.092399 35.260318 10.092399h77.049156c17.819391 0 32.295676-16.242454 32.295676-36.238019 0-16.242454-9.903166-30.6872-23.969447-34.850314l-123.411112-37.058026c-50.903536-15.264753-86.573857-64.181348-86.573858-119.058766 0.189232-67.335222 52.291241-121.834175 117.071825-123.600345z m487.683627 504.336085h-64.37058a480.114328 480.114328 0 0 1-144.60515 126.785758h126.375755c10.502402 0 19.017864 7.127757 19.017863 15.863989v31.69644c0 8.704694-8.515461 15.863989-19.017863 15.863989H145.803622c-10.502402 0-19.017864-7.127757-19.017864-15.863989v-31.69644c0-8.704694 8.515461-15.863989 19.017864-15.863989H272.179377a482.385118 482.385118 0 0 1-144.60515-126.785758H63.392879c-35.071085 0-63.392879 28.321794-63.392879 63.392879v190.147099c0 35.071085 28.321794 63.392879 63.392879 63.392879h887.405692c35.071085 0 63.392879-28.321794 63.392879-63.392879v-190.147099c0-35.071085-28.321794-63.392879-63.392879-63.392879z" p-id="10943"></path></svg>