<?xml version="1.0" standalone="no"?><!DOCTYPE svg PUBLIC "-//W3C//DTD SVG 1.1//EN" "http://www.w3.org/Graphics/SVG/1.1/DTD/svg11.dtd"><svg t="1756966748255" class="icon" viewBox="0 0 1024 1024" version="1.1" xmlns="http://www.w3.org/2000/svg" p-id="66043" xmlns:xlink="http://www.w3.org/1999/xlink" width="128" height="128"><path d="M341.333333 298.666667a42.666667 42.666667 0 0 0-42.666666 42.666666v341.333334a42.666667 42.666667 0 0 0 42.666666 42.666666h341.333334a42.666667 42.666667 0 0 0 42.666666-42.666666v-170.666667a42.666667 42.666667 0 1 1 85.333334 0v170.666667a128 128 0 0 1-128 128H341.333333a128 128 0 0 1-128-128V341.333333a128 128 0 0 1 128-128h170.666667a42.666667 42.666667 0 1 1 0 85.333334H341.333333z" fill="#13253D" p-id="66044"></path><path d="M798.165333 225.834667a42.666667 42.666667 0 0 1 0 60.330666l-256 256a42.666667 42.666667 0 0 1-60.330666-60.330666l256-256a42.666667 42.666667 0 0 1 60.330666 0z" fill="#13253D" p-id="66045"></path></svg>