<?xml version="1.0" standalone="no"?><!DOCTYPE svg PUBLIC "-//W3C//DTD SVG 1.1//EN" "http://www.w3.org/Graphics/SVG/1.1/DTD/svg11.dtd"><svg t="1756966906041" class="icon" viewBox="0 0 1024 1024" version="1.1" xmlns="http://www.w3.org/2000/svg" p-id="72831" xmlns:xlink="http://www.w3.org/1999/xlink" width="128" height="128"><path d="M797.91 85.205l140.757 140.63-351.659 351.744-140.672-140.672z m-456.534 598.23l210.645-70.955-140.586-140.63z m668.16-598.571l-70.4-70.357a49.92 49.92 0 0 0-70.613 0.256L833.707 49.62l140.757 140.715 34.816-34.859c19.456-19.541 19.67-51.2 0.256-70.613z" p-id="72832"></path><path d="M854.016 896a42.667 42.667 0 0 1-42.667 42.667H128A42.667 42.667 0 0 1 85.333 896V212.65A42.667 42.667 0 0 1 128 169.985h472.021l84.054-84.01H85.333A85.333 85.333 0 0 0 0 171.306v767.36A85.333 85.333 0 0 0 85.333 1024h768a85.333 85.333 0 0 0 85.334-85.333V342.016l-84.566 84.65L854.016 896z" p-id="72833"></path></svg>