<?xml version="1.0" standalone="no"?><!DOCTYPE svg PUBLIC "-//W3C//DTD SVG 1.1//EN" "http://www.w3.org/Graphics/SVG/1.1/DTD/svg11.dtd"><svg t="1756791968324" class="icon" viewBox="0 0 1024 1024" version="1.1" xmlns="http://www.w3.org/2000/svg" p-id="34022" xmlns:xlink="http://www.w3.org/1999/xlink" width="128" height="128"><path d="M384 224A117.333333 117.333333 0 1 1 266.666667 341.333333 117.461333 117.461333 0 0 1 384 224z m0 170.666667A53.333333 53.333333 0 1 0 330.666667 341.333333 53.376 53.376 0 0 0 384 394.666667z" p-id="34023"></path><path d="M640 970.666667H384c-118.186667 0-198.272-25.002667-251.946667-78.72S53.333333 758.186667 53.333333 640V384c0-118.186667 25.002667-198.272 78.72-251.946667S265.813333 53.333333 384 53.333333h170.666667a32 32 0 0 1 32 32 32 32 0 0 1-32 32H384c-100.096 0-165.802667 19.2-206.72 59.946667S117.333333 283.904 117.333333 384v256c0 100.096 19.072 165.802667 59.946667 206.72S283.904 906.666667 384 906.666667h256c100.096 0 165.802667-19.072 206.72-59.946667S906.666667 740.096 906.666667 640v-213.333333a32 32 0 0 1 64 0v213.333333c0 118.186667-25.002667 198.272-78.72 251.946667S758.186667 970.666667 640 970.666667z" p-id="34024"></path><path d="M768 373.333333a32 32 0 0 1-32-32V85.333333a32 32 0 0 1 19.754667-29.568 32 32 0 0 1 34.858666 6.954667l85.333334 85.333333a32 32 0 0 1-45.226667 45.226667l-30.72-30.72V341.333333a32 32 0 0 1-32 32z" p-id="34025"></path><path d="M682.666667 202.666667a31.914667 31.914667 0 0 1-22.613334-9.386667 32 32 0 0 1 0-45.269333l85.333334-85.333334a32 32 0 0 1 45.269333 0 32 32 0 0 1-0.042667 45.269334l-85.333333 85.333333a31.914667 31.914667 0 0 1-22.613333 9.386667zM113.92 840.405333a31.957333 31.957333 0 0 1-26.581333-14.165333 32 32 0 0 1 8.533333-44.416l210.346667-141.226667a128.810667 128.810667 0 0 1 151.338666 8.277334l0.256 0.256 13.909334 12.245333a63.146667 63.146667 0 0 0 78.506666 0l177.493334-152.32a126.762667 126.762667 0 0 1 162.133333 0l69.546667 59.733333a32 32 0 1 1-41.685334 48.554667l-69.546666-59.733333a63.146667 63.146667 0 0 0-78.634667 0l-177.493333 152.32a126.762667 126.762667 0 0 1-162.133334 0l-0.256-0.256-13.909333-12.245334a64 64 0 0 0-73.856-3.584l-210.133333 141.226667a31.872 31.872 0 0 1-17.834667 5.333333z" p-id="34026"></path></svg>