<?xml version="1.0" standalone="no"?><!DOCTYPE svg PUBLIC "-//W3C//DTD SVG 1.1//EN" "http://www.w3.org/Graphics/SVG/1.1/DTD/svg11.dtd"><svg t="1757523471185" class="icon" viewBox="0 0 1024 1024" version="1.1" xmlns="http://www.w3.org/2000/svg" p-id="98906" xmlns:xlink="http://www.w3.org/1999/xlink" width="128" height="128"><path d="M448 912H168.96c-31.36 0-56.96-24.96-56.96-55.68V167.68c0-30.72 25.6-55.68 56.96-55.68h622.08c31.36 0 56.96 24.96 56.96 55.68V448c0 26.24 21.76 48 48 48s48-21.76 48-48V167.68A152.32 152.32 0 0 0 791.04 16H168.96A152.32 152.32 0 0 0 16 167.68v689.28a152.32 152.32 0 0 0 152.96 151.68H448c26.24 0 48-21.76 48-48s-21.76-48-48-48z" p-id="98907"></path><path d="M990.08 602.24a47.296 47.296 0 0 0-67.2 7.68l-222.72 278.4-90.24-90.24a48.256 48.256 0 0 0-67.84 0c-18.56 18.56-18.56 49.28 0 67.84l128 128c8.96 8.96 21.12 14.08 33.92 14.08h2.56c13.44-0.64 26.24-7.04 34.56-17.92l256-320c16.64-20.48 13.44-51.2-7.68-67.2zM256 272c-26.24 0-48 21.76-48 48s21.76 48 48 48h448c26.24 0 48-21.76 48-48s-21.76-48-48-48H256zM448 528H256c-26.24 0-48 21.76-48 48s21.76 48 48 48h192c26.24 0 48-21.76 48-48s-21.76-48-48-48z" p-id="98908"></path></svg>