<?xml version="1.0" standalone="no"?><!DOCTYPE svg PUBLIC "-//W3C//DTD SVG 1.1//EN" "http://www.w3.org/Graphics/SVG/1.1/DTD/svg11.dtd"><svg t="1741144126877" class="icon" viewBox="0 0 1024 1024" version="1.1" xmlns="http://www.w3.org/2000/svg" p-id="15367" xmlns:xlink="http://www.w3.org/1999/xlink" width="256" height="256"><path d="M442.709241 917.333142h-101.439979C152.789302 917.333142 0 764.543841 0 575.99988c0-188.479961 152.959968-341.333262 341.418596-341.333262h133.098638L375.893255 136.063972l60.330654-60.330654 203.135958 203.114624-201.727958 201.727958-60.330654-60.351988L477.546567 319.999933h-136.127971C200.063958 319.999933 85.333316 434.666576 85.333316 575.99988c0 141.418637 114.559976 255.999947 255.935946 255.999947h56.106655A277.119942 277.119942 0 0 1 383.99992 746.666511c0-153.173301 124.159974-277.333276 277.333276-277.333275 122.751974 0 226.879953 79.743983 263.381278 190.250627A255.999947 255.999947 0 0 0 938.666471 575.99988c0-141.397304-114.623976-255.999947-255.999947-255.999947v-85.333315c188.501294 0 341.333262 152.810635 341.333263 341.333262a340.266596 340.266596 0 0 1-92.522648 233.663951C902.954479 932.479806 792.810501 1023.999787 661.333196 1023.999787a276.863942 276.863942 0 0 1-218.623955-106.666645zM618.666538 618.666538v255.999946h85.333315V618.666538h-85.333315z" fill="#000000" p-id="15368"></path></svg>