<?xml version="1.0" standalone="no"?><!DOCTYPE svg PUBLIC "-//W3C//DTD SVG 1.1//EN" "http://www.w3.org/Graphics/SVG/1.1/DTD/svg11.dtd"><svg t="1756658680165" class="icon" viewBox="0 0 1025 1024" version="1.1" xmlns="http://www.w3.org/2000/svg" p-id="16516" xmlns:xlink="http://www.w3.org/1999/xlink" width="128.125" height="128"><path d="M769.90464 192.23552H638.5152l31.9488 128.1536h131.38944l-31.9488-128.1536z m75.4688 0l31.9488 128.1536h65.51552V192.23552h-97.46432z m-282.33728 0H431.64672l31.9488 128.1536h131.39968l-31.95904-128.1536z m-206.85824 0H224.78848l31.9488 128.1536h131.38944l-31.9488-128.1536z m-206.86848 0H82.39104v128.1536h98.87744l-31.95904-128.1536z m793.52832 201.37984H82.39104v439.38816h860.45696V393.61536zM1025.2288 146.46272v732.30336c0 20.21376-16.39424 36.608-36.61824 36.608H36.61824c-20.224 0-36.61824-16.39424-36.61824-36.608V146.46272c0-20.224 16.39424-36.61824 36.61824-36.61824h951.99232c20.224 0 36.61824 16.40448 36.61824 36.61824zM620.20608 605.60384c4.52608 3.91168 4.52608 11.48928 0 15.39072L461.93664 757.63712c-5.90848 5.08928-14.5408 0.512-14.5408-7.70048V476.672c0-8.192 8.6528-12.76928 14.5408-7.70048l158.26944 136.63232z m0 0" fill="#2C2C2C" p-id="16517"></path></svg>