<?xml version="1.0" standalone="no"?><!DOCTYPE svg PUBLIC "-//W3C//DTD SVG 1.1//EN" "http://www.w3.org/Graphics/SVG/1.1/DTD/svg11.dtd"><svg t="1753674475636" class="icon" viewBox="0 0 1024 1024" version="1.1" xmlns="http://www.w3.org/2000/svg" p-id="4389" data-darkreader-inline-fill="" xmlns:xlink="http://www.w3.org/1999/xlink" width="128" height="128"><path d="M176 416c32 0.64 58.496 11.52 79.488 32.512s31.829333 47.530667 32.512 79.488c-0.682667 32-11.52 58.496-32.512 79.488-21.034667 20.992-47.530667 31.829333-79.488 32.512-32-0.64-58.496-11.52-79.488-32.512s-31.829333-47.530667-32.512-79.488c0.682667-32 11.52-58.496 32.512-79.488 21.034667-20.992 47.530667-31.829333 79.488-32.512z m336 0c32 0.64 58.496 11.52 79.488 32.512s31.829333 47.530667 32.512 79.488c-0.64 32-11.52 58.496-32.512 79.488S543.957333 639.317333 512 640c-32-0.64-58.496-11.52-79.488-32.512s-31.829333-47.530667-32.512-79.488c0.64-32 11.52-58.496 32.512-79.488S480.042667 416.682667 512 416z m336 0c32 0.64 58.496 11.52 79.488 32.512s31.829333 47.530667 32.512 79.488c-0.64 32-11.52 58.496-32.512 79.488s-47.488 31.829333-79.488 32.512c-32-0.64-58.496-11.52-79.488-32.512s-31.829333-47.530667-32.512-79.488c0.64-32 11.52-58.496 32.512-79.488s47.488-31.829333 79.488-32.512z" fill="#08080A" fill-opacity=".96" p-id="4390" style="--darkreader-inline-fill: var(--darkreader-background-08080a, #070708);" data-darkreader-inline-fill=""></path></svg>