<?xml version="1.0" standalone="no"?><!DOCTYPE svg PUBLIC "-//W3C//DTD SVG 1.1//EN" "http://www.w3.org/Graphics/SVG/1.1/DTD/svg11.dtd"><svg t="1754287431584" class="icon" viewBox="0 0 1024 1024" version="1.1" xmlns="http://www.w3.org/2000/svg" p-id="2439" data-darkreader-inline-fill="" xmlns:xlink="http://www.w3.org/1999/xlink" width="128" height="128"><path d="M700.202667 495.061333L527.232 322.133333a24.362667 24.362667 0 0 0-34.474667 34.474667l131.072 131.072H341.333333a24.618667 24.618667 0 0 0-24.362666 24.32c0 13.098667 10.922667 24.405333 24.362666 24.405333h282.453334l-131.114667 131.072a24.362667 24.362667 0 0 0 34.474667 34.474667l173.013333-172.970667a23.594667 23.594667 0 0 0 6.869333-16.938666v-1.365334a23.253333 23.253333 0 0 0-6.826666-15.573333zM512 170.666667a341.333333 341.333333 0 1 0 0 682.666666 341.333333 341.333333 0 0 0 0-682.666666z m0 633.898666a292.565333 292.565333 0 1 1 0-585.130666 292.565333 292.565333 0 0 1 0 585.130666z" fill="#000000" p-id="2440" style="--darkreader-inline-fill: var(--darkreader-background-000000, #000000);" data-darkreader-inline-fill=""></path></svg>