<?xml version="1.0" standalone="no"?><!DOCTYPE svg PUBLIC "-//W3C//DTD SVG 1.1//EN" "http://www.w3.org/Graphics/SVG/1.1/DTD/svg11.dtd"><svg t="1743676097387" class="icon" viewBox="0 0 1024 1024" version="1.1" xmlns="http://www.w3.org/2000/svg" p-id="37857" xmlns:xlink="http://www.w3.org/1999/xlink" width="256" height="256"><path d="M859.92 791.197l-75.405-129.159V402.23c0-99.295-76.897-207.549-188.137-247.117-5.226-53.008-41.809-91.083-88.843-91.083s-83.617 38.822-88.843 91.083C306.705 194.68 230.554 302.187 230.554 402.229v259.81l-78.39 135.13c-5.227 8.96-5.227 20.158 0 29.117 5.225 8.959 14.93 14.185 25.383 14.185h187.391c13.439 64.952 72.418 113.48 142.597 113.48s129.158-49.274 142.596-113.48h188.884c16.425 0 29.864-12.692 29.864-29.117 0-8.212-3.733-14.931-8.96-20.157M507.536 121.515c10.452 0 19.41 8.213 24.637 19.412-8.213-0.747-16.425-2.987-24.637-2.987s-16.425 2.24-24.638 2.987c5.227-11.2 14.186-19.412 24.638-19.412m0 774.95c-37.33 0-68.686-23.891-80.63-55.994h162.007c-12.692 32.85-44.048 55.993-81.377 55.993m-279.22-113.48l57.486-98.548c2.24-4.48 3.733-8.96 3.733-14.185V402.229c0-97.055 93.322-206.056 218-206.056S725.537 305.174 725.537 402.23v267.275c0 5.226 1.493 9.706 3.732 14.185l57.487 98.549h-558.44v0.746z" fill="" p-id="37858"></path></svg>