<?xml version="1.0" standalone="no"?><!DOCTYPE svg PUBLIC "-//W3C//DTD SVG 1.1//EN" "http://www.w3.org/Graphics/SVG/1.1/DTD/svg11.dtd"><svg t="1756658344839" class="icon" viewBox="0 0 1024 1024" version="1.1" xmlns="http://www.w3.org/2000/svg" p-id="9031" xmlns:xlink="http://www.w3.org/1999/xlink" width="128" height="128"><path d="M927.936 597.632a34.56 34.56 0 1 0 34.56-34.432 34.496 34.496 0 0 0-34.56 34.432z" p-id="9032"></path><path d="M962.496 700.544a34.56 34.56 0 0 0-34.56 34.496v86.464A68.8 68.8 0 0 1 859.2 890.24H172.8a68.8 68.8 0 0 1-68.736-68.736V203.52a68.8 68.8 0 0 1 68.736-68.736h238.912l88.768 153.6a34.56 34.56 0 0 0 33.792 16.96h324.8a68.8 68.8 0 0 1 68.736 68.736v85.888a34.56 34.56 0 0 0 69.12 0 20.8 20.8 0 0 0 0-2.56v-83.2a137.472 137.472 0 0 0-90.112-128.704v-1.088a133.504 133.504 0 0 0-133.12-133.12H477.44l-15.872-27.584a31.36 31.36 0 0 0-29.312-17.152H172.352A137.408 137.408 0 0 0 34.944 203.712v616.384a137.408 137.408 0 0 0 137.408 137.408H859.52a137.408 137.408 0 0 0 137.408-137.408v-82.56a20.8 20.8 0 0 0 0-2.56 34.496 34.496 0 0 0-34.56-34.496z m-194.24-520.832a68.992 68.992 0 0 1 67.776 57.6H550.08l-33.088-57.6h251.264z" p-id="9033"></path><path d="M512 452.032a36.032 36.032 0 0 1 36.032 35.2v247.552a36.032 36.032 0 0 1-72 0.832V488.064a36.032 36.032 0 0 1 36.032-36.032z" p-id="9034"></path><path d="M352.64 611.392a36.032 36.032 0 0 1 35.2-36.032h247.488a36.032 36.032 0 0 1 0.896 72.064H388.672a36.032 36.032 0 0 1-36.032-36.032z" p-id="9035"></path></svg>