<?xml version="1.0" standalone="no"?><!DOCTYPE svg PUBLIC "-//W3C//DTD SVG 1.1//EN" "http://www.w3.org/Graphics/SVG/1.1/DTD/svg11.dtd"><svg t="1758199815352" class="icon" viewBox="0 0 1024 1024" version="1.1" xmlns="http://www.w3.org/2000/svg" p-id="2360" xmlns:xlink="http://www.w3.org/1999/xlink" width="128" height="128"><path d="M353.275 155.73c-6.508-30.25 29.435-51.204 52.553-30.639l174.511 155.24 193.844-113.898c26.758-15.722 57.778 11.98 45.645 40.15l-0.38 0.855-97.358 210.848 174.179 154.945c22.743 20.232 7.034 57.597-23.014 55.863l-0.914-0.065-233.323-19.459-86.671 192.754c-12.47 27.732-52.772 23.993-60.176-5.146l-0.215-0.891-40.454-178.133-278.85 279.45c-12.484 12.51-32.745 12.531-45.255 0.048-12.385-12.359-12.53-32.34-0.42-44.878l0.371-0.377 271.193-271.774-187.221-15.614c-30.296-2.526-40.055-41.616-15.443-58.284l0.757-0.498 0.785-0.489 204.54-123.702z m83.157 82.243l32.895 152.908a32 32 0 0 1-14.724 34.112L314.98 509.432l157.532 13.139c0.894 0.074 1.779 0.186 2.652 0.332l0.186 0.032a23.765 23.765 0 0 1 0.758 0.141 14.298 14.298 0 0 1 0.355 0.073 31.802 31.802 0 0 1 13.379 6.322l0.139 0.113a32.125 32.125 0 0 1 4.193 4.08l0.108 0.127 0.162 0.193a31.814 31.814 0 0 1 6.698 13.76l32.048 141.122 56.741-126.19a32 32 0 0 1 31.41-18.799l0.435 0.034 160.265 13.365-120.223-106.947a32 32 0 0 1-7.97-36.91l0.187-0.414 64.471-139.629-125.825 73.934a32 32 0 0 1-37.133-3.376l-0.347-0.305-118.77-105.656z" p-id="2361"></path></svg>