<?xml version="1.0" standalone="no"?><!DOCTYPE svg PUBLIC "-//W3C//DTD SVG 1.1//EN" "http://www.w3.org/Graphics/SVG/1.1/DTD/svg11.dtd"><svg t="1753777661981" class="icon" viewBox="0 0 1024 1024" version="1.1" xmlns="http://www.w3.org/2000/svg" p-id="8189" data-darkreader-inline-fill="" xmlns:xlink="http://www.w3.org/1999/xlink" width="128" height="128"><path d="M751.914667 200.597333h-42.965334V238.933333a66.346667 66.346667 0 1 1-132.693333 0V200.597333h-148.48V238.933333a66.346667 66.346667 0 1 1-132.330667 0V200.597333h-44.48a58.688 58.688 0 0 0-58.688 59.072v575.36a58.688 58.688 0 0 0 58.666667 59.093334h334.506667a191.786667 191.786667 0 0 1-68.266667-133.504h-191.808a29.546667 29.546667 0 0 1-25.322667-14.933334 28.373333 28.373333 0 0 1 0-29.162666 29.546667 29.546667 0 0 1 25.322667-14.976h197.162667a191.786667 191.786667 0 0 1 32.981333-73.642667H325.376a29.546667 29.546667 0 0 1 0-59.072h309.546667a195.626667 195.626667 0 0 1 74.026666-14.570667 189.482667 189.482667 0 0 1 103.189334 30.293334v-324.906667a59.093333 59.093333 0 0 0-60.224-59.050667z m-73.642667 294.592H325.376a29.162667 29.162667 0 0 1-25.706667-14.570666 31.061333 31.061333 0 0 1 0-29.546667c5.397333-9.045333 15.168-14.570667 25.706667-14.570667h352.896a29.546667 29.546667 0 1 1 0 58.666667z" fill="#000000" p-id="8190" style="--darkreader-inline-fill: var(--darkreader-background-000000, #000000);" data-darkreader-inline-fill=""></path><path d="M641.450667 274.24a38.357333 38.357333 0 0 1-26.090667-10.730667 38.357333 38.357333 0 0 1-10.730667-26.090666V179.114667a38.357333 38.357333 0 1 1 73.642667 0v58.304c0 21.184-17.173333 38.357333-38.357333 38.357333l1.536-1.536z m-280.021334 0a38.357333 38.357333 0 0 1-26.090666-10.730667 38.357333 38.357333 0 0 1-9.962667-26.090666V179.114667a38.357333 38.357333 0 1 1 72.874667 0v58.304c0 21.184-17.173333 38.357333-38.357334 38.357333l1.536-1.536zM708.949333 583.786667a162.261333 162.261333 0 1 0 162.261334 161.877333 161.877333 161.877333 0 0 0-162.261334-161.877333z m63.296 205.610666h-80.938666a19.946667 19.946667 0 0 1-19.946667-19.946666v-79.786667a19.946667 19.946667 0 1 1 38.357333 0v59.84h59.84a19.946667 19.946667 0 1 1 0 38.357333l2.688 1.536z" fill="#000000" p-id="8191" style="--darkreader-inline-fill: var(--darkreader-background-000000, #000000);" data-darkreader-inline-fill=""></path></svg>