<?xml version="1.0" standalone="no"?><!DOCTYPE svg PUBLIC "-//W3C//DTD SVG 1.1//EN" "http://www.w3.org/Graphics/SVG/1.1/DTD/svg11.dtd"><svg t="1741108984831" class="icon" viewBox="0 0 1325 1024" version="1.1" xmlns="http://www.w3.org/2000/svg" p-id="35784" xmlns:xlink="http://www.w3.org/1999/xlink" width="331.25" height="256"><path d="M843.229139 1023.998795H421.61457A421.61457 421.61457 0 0 1 421.61457 180.769656h697.832343l-77.878234-77.878234c-23.249032-23.249032 0-84.322914 0-85.226374a60.230653 60.230653 0 0 1 85.226374 0l180.691958 180.691959a60.230653 60.230653 0 0 1 0 85.166143l-180.691958 180.691958a60.230653 60.230653 0 1 1-85.226374-85.166143L1119.446913 301.230962H421.61457a301.153264 301.153264 0 1 0 0 602.306528h421.614569a361.383917 361.383917 0 0 0 356.806388-303.743182 60.230653 60.230653 0 0 1 59.447654-50.774441 60.89319 60.89319 0 0 1 9.576674 0.782999 60.230653 60.230653 0 0 1 49.931211 69.024328 478.83369 478.83369 0 0 1-97.694119 222.010186l-47.220832-37.403235 47.220832 37.403235A479.375766 479.375766 0 0 1 843.229139 1023.998795z m299.165653-843.229139H1204.613056l60.230653 60.230653V180.769656h-60.230653L1041.568679 17.725279 1142.394792 180.769656h-22.947879l60.230653 60.230653zM662.537181 843.306837a60.230653 60.230653 0 0 1-60.230653-60.230653V567.089063l-32.705244 32.705245a60.230653 60.230653 0 1 1-85.166143-85.166143l135.518968-135.518969A60.230653 60.230653 0 0 1 722.767834 421.692267v361.383917a60.230653 60.230653 0 0 1-60.230653 60.230653z" fill="#000000" fill-opacity="0.85" p-id="35785"></path></svg>