<?xml version="1.0" standalone="no"?><!DOCTYPE svg PUBLIC "-//W3C//DTD SVG 1.1//EN" "http://www.w3.org/Graphics/SVG/1.1/DTD/svg11.dtd"><svg t="1757137030057" class="icon" viewBox="0 0 1024 1024" version="1.1" xmlns="http://www.w3.org/2000/svg" p-id="94320" xmlns:xlink="http://www.w3.org/1999/xlink" width="128" height="128"><path d="M758.199 343.845l0.073 0.146h-0.073v-0.22z m0 0l62.537-109.349 109.495-62.537-109.422-62.537L758.2 0l-62.464 109.495-109.495 62.537 109.422 62.464 62.537 109.349zM226.743 617.472l125.074 226.743 117.248-226.743 226.743-125.074-218.917-125.001-125.074-226.743-125.074 226.743L0 492.47l226.67 125.001zM727.04 844.215l78.19 140.727 78.116-140.727L1024 766.025l-140.727-78.19-78.19-140.653-78.043 140.727-140.727 78.116 140.727 78.263z" p-id="94321"></path></svg>