<?xml version="1.0" standalone="no"?><!DOCTYPE svg PUBLIC "-//W3C//DTD SVG 1.1//EN" "http://www.w3.org/Graphics/SVG/1.1/DTD/svg11.dtd"><svg t="1743574113251" class="icon" viewBox="0 0 1024 1024" version="1.1" xmlns="http://www.w3.org/2000/svg" p-id="9960" xmlns:xlink="http://www.w3.org/1999/xlink" width="256" height="256"><path d="M214.016 200.192c-12.288-11.776-32.256-11.776-44.544 0-12.288 11.776-12.288 30.72 0 42.496l44.544 42.496c12.288 11.776 32.256 11.776 44.544 0 12.288-11.776 12.288-30.72 0-42.496l-44.544-42.496z m595.968 0l-44.544 42.496c-12.288 11.776-12.288 30.72 0 42.496 12.288 11.776 32.256 11.776 44.544 0l44.544-42.496c12.288-11.776 12.288-30.72 0-42.496-12.288-11.776-32.256-11.776-44.544 0zM135.168 437.248H72.704c-17.408 0-31.232 13.312-31.232 29.696 0 16.384 13.824 30.208 31.232 30.208h62.976c17.408 0 31.232-13.312 31.232-30.208 0-16.384-14.336-29.696-31.744-29.696z m816.128 0h-62.976c-17.408 0-31.232 13.312-31.232 29.696 0 16.384 13.824 30.208 31.232 30.208h62.976c17.408 0 31.232-13.312 31.232-30.208 0-16.384-13.824-29.696-31.232-29.696zM480.768 92.672v59.904c0 16.384 13.824 29.696 31.232 29.696 17.408 0 31.232-13.312 31.232-29.696V92.672c0-16.384-13.824-29.696-31.232-29.696-17.408-0.512-31.232 13.312-31.232 29.696zM229.376 512c0 148.992 126.464 269.824 282.624 269.824s282.624-120.832 282.624-269.824-126.464-269.824-282.624-269.824S229.376 363.008 229.376 512z m219.648 419.328c0 16.384 13.824 30.208 31.232 30.208h62.976c17.408 0 31.232-13.312 31.232-30.208 0-16.384-13.824-30.208-31.232-30.208H480.768c-17.408 0.512-31.744 13.824-31.744 30.208z m-62.464-89.6c0 16.384 13.824 30.208 31.232 30.208h188.416c17.408 0 31.232-13.312 31.232-30.208 0-16.384-13.824-30.208-31.232-30.208H417.792c-17.408 0-31.232 13.312-31.232 30.208z" p-id="9961"></path></svg>