<?xml version="1.0" standalone="no"?><!DOCTYPE svg PUBLIC "-//W3C//DTD SVG 1.1//EN" "http://www.w3.org/Graphics/SVG/1.1/DTD/svg11.dtd"><svg t="1743574091202" class="icon" viewBox="0 0 1024 1024" version="1.1" xmlns="http://www.w3.org/2000/svg" p-id="8967" xmlns:xlink="http://www.w3.org/1999/xlink" width="256" height="256"><path d="M189.451 157.033c-13.255-13.256-34.756-13.256-47.999 0-13.261 13.258-13.261 34.748 0 48.009l47.999 48c13.262 13.258 34.744 13.258 48.006 0 13.255-13.25 13.255-34.737 0-48l-48.006-48.009z m644.975 0l-48.001 48.009c-13.257 13.261-13.257 34.749 0 48 13.242 13.258 34.737 13.258 48.001 0l47.996-48c13.267-13.26 13.267-34.75 0-48.009-13.251-13.251-34.739-13.251-47.996 0zM104.59 425.689H36.698c-18.746 0-33.946 15.199-33.946 33.944 0 18.751 15.2 33.947 33.946 33.947h67.892c18.748 0 33.943-15.196 33.943-33.947 0-18.745-15.195-33.944-33.943-33.944z m882.59 0h-67.892c-18.744 0-33.946 15.199-33.946 33.944 0 18.751 15.203 33.947 33.946 33.947h67.892c18.744 0 33.952-15.196 33.952-33.947 0.001-18.745-15.208-33.944-33.952-33.944zM477.995 35.312v67.889c0 18.749 15.193 33.942 33.94 33.942 18.746 0 33.951-15.194 33.951-33.942V35.312c0-18.748-15.205-33.946-33.951-33.946-18.746 0-33.94 15.2-33.94 33.946z m-203.677 475.24c0-131.231 106.38-237.62 237.618-237.62 131.241 0 237.626 106.388 237.626 237.62 0 131.235-106.386 237.628-237.626 237.628-131.238 0.002-237.618-106.393-237.618-237.628z m-67.89 0c0 168.744 136.775 305.527 305.507 305.527 168.739 0 305.517-136.783 305.517-305.527 0-168.735-136.776-305.51-305.517-305.51-168.733 0-305.507 136.776-305.507 305.51z m237.619 475.255c0 18.734 15.2 33.946 33.948 33.946h67.892c18.749 0 33.947-15.211 33.947-33.946 0-18.758-15.199-33.947-33.947-33.947h-67.892c-18.747-0.002-33.948 15.188-33.948 33.947z m-67.89-101.836c0 18.73 15.197 33.943 33.943 33.943h203.676c18.747 0 33.947-15.212 33.947-33.943 0-18.764-15.202-33.953-33.947-33.953H410.102c-18.748-0.001-33.945 15.189-33.945 33.953z" p-id="8968"></path></svg>