<?xml version="1.0" standalone="no"?><!DOCTYPE svg PUBLIC "-//W3C//DTD SVG 1.1//EN" "http://www.w3.org/Graphics/SVG/1.1/DTD/svg11.dtd"><svg t="1744814409080" class="icon" viewBox="0 0 1024 1024" version="1.1" xmlns="http://www.w3.org/2000/svg" p-id="5599" xmlns:xlink="http://www.w3.org/1999/xlink" width="256" height="256"><path d="M407.722723 560.966193a113.378224 113.378224 0 0 0 147.318544 55.738198 113.524518 113.524518 0 0 0 59.761296-153.609206 113.378224 113.378224 0 0 0-156.535096-51.788247 113.524518 113.524518 0 0 0-50.544744 149.659255z m530.756383-50.10586c101.308929-181.990336 111.549543-366.321384 25.089503-452.781423-86.533186-85.948008-271.961443-75.707395-454.024926 25.601534C328.065377-16.019246 144.319507-25.601534 58.371499 60.20018-27.503363 146.294483-17.847927 329.455175 82.290646 510.860333-17.847927 691.826608-27.503363 875.572478 58.371499 960.935309c26.77189 26.698743 63.199216 45.497584 105.332027 54.567842 94.359941 19.969197 216.662129-7.314724 345.254979-77.901812 129.690059 71.684296 253.74778 100.138573 348.766046 80.169376 41.547633-9.070258 78.48699-27.795952 105.25888-54.567842a206.27522 206.27522 0 0 0 54.567842-104.673702c20.481228-95.091414-7.899902-218.49081-79.584198-347.668838h0.512031zM139.711231 141.174176c34.74494-34.74494 98.456187-38.109713 190.036533-10.825792 22.748792 6.802693 45.497584 15.360921 68.246376 25.016356-45.497584 33.647731-88.727604 71.172266-129.690059 112.134721A1131.222086 1131.222086 0 0 0 153.974943 399.383937a624.238557 624.238557 0 0 1-25.016357-68.831554c-27.869099-91.580346-24.504326-155.291593 10.752645-190.036533v0.585178zM329.747764 890.933399c-92.165524 27.869099-155.291593 23.919148-190.036533-10.825792-34.671792-34.671792-38.036565-97.871009-10.752645-190.036533 6.802693-22.675645 15.360921-45.497584 25.016357-68.246376a1182.205713 1182.205713 0 0 0 243.507166 244.092344 660.373294 660.373294 0 0 1-68.319523 25.016357h0.585178z m19.384019-217.905632c-53.470633-53.470633-98.456187-107.526445-134.298335-162.679465 35.842148-55.226167 80.827702-109.281978 134.298335-162.752611A1041.177832 1041.177832 0 0 1 509.543683 215.052889a1014.552236 1014.552236 0 0 1 163.264642 134.298335c52.885455 52.885455 97.285831 106.356089 133.127979 160.4119-35.842148 54.055811-80.242524 107.526445-133.127979 160.411901-54.055811 53.470633-108.111623 98.456187-163.264642 134.298335a1041.177832 1041.177832 0 0 1-160.4119-132.542802V672.95462z m533.023947 209.347405c-34.671792 34.74494-98.38304 38.109713-189.963386 10.825791a727.010431 727.010431 0 0 1-71.684296-26.186712 1141.608995 1141.608995 0 0 0 133.127979-114.329138 1100.134509 1100.134509 0 0 0 112.646751-130.275237c10.240614 23.33397 18.725694 47.179971 26.113566 71.099119 27.869099 91.580346 24.504326 155.291593-10.752645 190.036532l0.512031-1.170355z m10.825791-553.505175a668.565785 668.565785 0 0 1-26.186712 71.099118 1158.067124 1158.067124 0 0 0-113.158782-130.933562 1141.608995 1141.608995 0 0 0-133.127979-114.25599c23.846001-10.240614 47.765149-19.384019 71.684296-26.771891 92.165524-27.869099 155.291593-23.919148 189.963386 10.825792 34.74494 34.671792 38.109713 97.871009 10.825791 190.036533z" p-id="5600"></path></svg>