<?xml version="1.0" standalone="no"?><!DOCTYPE svg PUBLIC "-//W3C//DTD SVG 1.1//EN" "http://www.w3.org/Graphics/SVG/1.1/DTD/svg11.dtd"><svg t="1754792683616" class="icon" viewBox="0 0 1024 1024" version="1.1" xmlns="http://www.w3.org/2000/svg" p-id="16823" data-darkreader-inline-fill="" xmlns:xlink="http://www.w3.org/1999/xlink" width="128" height="128"><path d="M681.696 682.368l0.192-89.408S561.504 741.312 561.504 801.504c0 60.16 120.384 208.512 120.384 208.512l-0.192-89.12h120.096a83.2 83.2 0 0 0 72.672-41.408l148.8-257.76a121.184 121.184 0 0 1-105.76 60.512l-235.808 0.096z m68.16-596.224a95.36 95.36 0 0 0-82.336-47.68 94.336 94.336 0 0 0-82.048 48.192c-0.096 0.096-27.712 47.68-55.552 96.064l56.128 97.12-78.016 43.808s188.672 29.92 240.768-0.096c52.128-30.176 120.384-208.448 120.384-208.448L792 159.84s-30.112-52.768-42.176-73.664z m253.696 523.616a94.656 94.656 0 0 0-0.48-95.2c0-0.096-59.68-103.264-107.104-185.312L689.44 448.48l120.384 208.544h110.912a94.976 94.976 0 0 0 82.816-47.296z m-718.88-48.576l77.344 44.832s-68.288-178.368-120.384-208.544c-52.224-30.08-240.864 0-240.864 0l77.44 44.48-60.16 104.096a83.008 83.008 0 0 0-0.48 83.616l148.8 257.696a121.792 121.792 0 0 1 0.384-122.016l117.888-204.16z m-98.016 314.944a94.784 94.784 0 0 0 82.624 47.424h214.208V684.928h-240.96c-27.84 48.224-55.456 96.064-55.456 96.16a94.368 94.368 0 0 0-0.384 95.04z m-13.6-602.816l207.296 119.712S536.032 123.072 564.32 74.208c21.888-37.568 60.32-60.256 103.744-60.256H370.688c-31.072 0-57.088 17.44-72.288 42.112C272.096 98.848 173.024 273.28 173.024 273.28z" p-id="16824"></path></svg>