<?xml version="1.0" standalone="no"?><!DOCTYPE svg PUBLIC "-//W3C//DTD SVG 1.1//EN" "http://www.w3.org/Graphics/SVG/1.1/DTD/svg11.dtd"><svg t="1751295904138" class="icon" viewBox="0 0 1024 1024" version="1.1" xmlns="http://www.w3.org/2000/svg" p-id="4438" xmlns:xlink="http://www.w3.org/1999/xlink" width="256" height="256"><path d="M576 64v150.976c0 14.272 1.472 19.456 4.288 24.64a29.056 29.056 0 0 0 12.096 12.16c5.184 2.752 10.368 4.224 24.64 4.224h173.952c14.272 0 19.456-1.472 24.64-4.288a29.056 29.056 0 0 0 12.16-12.096c2.752-5.184 4.224-10.368 4.224-24.64V65.088c31.168 2.176 46.784 7.616 62.528 16 20.864 11.136 37.248 27.52 48.384 48.384 11.136 20.864 17.088 41.6 17.088 98.56v631.872c0 57.088-5.952 77.76-17.088 98.56-11.136 20.928-27.52 37.312-48.384 48.448-20.864 11.136-41.6 17.088-98.56 17.088H228.032c-57.088 0-77.76-5.952-98.56-17.088a116.288 116.288 0 0 1-48.448-48.384c-11.136-20.864-17.088-41.6-17.088-98.56V228.032c0-57.088 5.952-77.76 17.088-98.56 11.136-20.928 27.52-37.312 48.384-48.448 15.744-8.384 31.36-13.824 62.528-16v149.888c0 14.272 1.472 19.456 4.288 24.64a29.056 29.056 0 0 0 12.096 12.16c5.184 2.752 10.368 4.224 24.64 4.224h173.952c14.272 0 19.456-1.472 24.64-4.288a29.056 29.056 0 0 0 12.16-12.096C446.464 234.432 448 229.248 448 215.04V64h128zM288 448a32 32 0 0 0 0 64h448a32 32 0 1 0 0-64h-448z m0 256a32 32 0 1 0 0 64h448a32 32 0 1 0 0-64h-448z m9.024-704h45.952c14.272 0 19.456 1.472 24.64 4.288a29.056 29.056 0 0 1 12.16 12.096C382.464 21.568 384 26.752 384 40.96v109.952c0 14.272-1.472 19.456-4.288 24.64a29.056 29.056 0 0 1-12.096 12.16C362.432 190.464 357.248 192 343.04 192h-45.952c-14.272 0-19.456-1.472-24.64-4.288a29.056 29.056 0 0 1-12.16-12.096C257.536 170.432 256 165.248 256 151.04V41.024c0-14.272 1.472-19.456 4.288-24.64a29.056 29.056 0 0 1 12.096-12.16C277.568 1.536 282.752 0 296.96 0z m384 0h45.952c14.272 0 19.456 1.472 24.64 4.288a29.056 29.056 0 0 1 12.16 12.096c2.752 5.184 4.224 10.368 4.224 24.64v109.952c0 14.272-1.472 19.456-4.288 24.64a29.056 29.056 0 0 1-12.096 12.16c-5.184 2.752-10.368 4.224-24.64 4.224h-45.952c-14.272 0-19.456-1.472-24.64-4.288a29.056 29.056 0 0 1-12.16-12.096C641.536 170.432 640 165.248 640 151.04V41.024c0-14.272 1.472-19.456 4.288-24.64a29.056 29.056 0 0 1 12.096-12.16c5.184-2.752 10.368-4.224 24.64-4.224z" fill="#2c2c2c" p-id="4439"></path></svg>