<?xml version="1.0" standalone="no"?><!DOCTYPE svg PUBLIC "-//W3C//DTD SVG 1.1//EN" "http://www.w3.org/Graphics/SVG/1.1/DTD/svg11.dtd"><svg t="1757474656030" class="icon" viewBox="0 0 1024 1024" version="1.1" xmlns="http://www.w3.org/2000/svg" p-id="97856" xmlns:xlink="http://www.w3.org/1999/xlink" width="128" height="128"><path d="M453.803382 567.507895h67.180188L341.644936 96.62201h-65.053578L97.253748 567.507895h67.180187l45.288496-128.862111h196.042299l48.038652 128.862111z m-224.938391-182.087766l70.500648-195.731038c2.853568-7.72931 5.394852-18.675668 7.625898-32.890268h1.504087c2.64572 15.615275 5.083591 26.560609 7.314637 32.83805l71.12317 195.731038H228.864991v0.052218zM898.543331 713.230326c-19.14256-20.543235-44.718192-32.68242-76.725871-36.314141v-1.192826c25.731262-8.300638 45.963236-22.410802 60.643704-42.228102 14.681492-19.8173 22.047323-42.746188 22.047323-68.6853 0-32.630201-12.347033-58.828355-37.092294-78.593437-24.745261-19.765082-57.738941-29.622026-99.084454-29.622027H630.028381v470.782473h141.935079c45.391908 0 82.639832-12.502664 111.690531-37.559186 29.050698-25.056522 43.628778-57.791159 43.628777-98.306301 0-31.6442-9.597901-57.686723-28.739437-78.281153z m-207.76681-203.512566h60.799335c59.191835 0 88.761643 22.202953 88.761642 66.609883 0 25.315565-8.351833 45.132865-25.056521 59.450878-16.704689 14.318012-39.789208 21.4248-69.152191 21.4248h-55.301071V509.71776h-0.051194z m146.707409 342.438447c-17.327211 14.681492-41.916841 22.047323-73.716672 22.047322H690.828739V710.065497h62.926968c73.146368 0 109.719551 26.976307 109.719552 80.875678-0.001024 26.094741-8.664118 46.53354-25.991329 61.215032z" fill="" p-id="97857"></path><path d="M474.190987 748.558465c-25.626826-4.721135-49.801782-15.563057-69.514647-33.045898-51.150239-45.132865-64.119795-118.487081-31.593005-178.352633l-45.651975-24.797479c-44.146864 81.239157-26.560609 180.739309 42.850624 242.05673 29.258547 25.782456 65.572688 41.345513 103.857808 46.53354v34.549987l90.78484-63.341642-90.78484-63.341642v39.738014h0.051195z" fill="" p-id="97858"></path></svg>