<?xml version="1.0" standalone="no"?><!DOCTYPE svg PUBLIC "-//W3C//DTD SVG 1.1//EN" "http://www.w3.org/Graphics/SVG/1.1/DTD/svg11.dtd"><svg t="1743677031825" class="icon" viewBox="0 0 1024 1024" version="1.1" xmlns="http://www.w3.org/2000/svg" p-id="39882" xmlns:xlink="http://www.w3.org/1999/xlink" width="256" height="256"><path d="M512.47132701 9.25119901C235.48815945 9.25119901 10.82228901 233.91706944 10.82228901 510.90023698s224.66587044 501.64903801 501.649038 501.64903801 501.64903801-224.50876145 501.64903799-501.64903801S789.45449454 9.25119901 512.47132701 9.25119901z m287.35236156 638.64808627c-45.4045011 114.53246123-153.9668203 188.53080036-276.66894954 188.53080036-164.17890533 0-297.72155559-134.32819526-297.72155561-299.29264559s133.54265026-299.2926456 297.72155561-299.29264559c43.5191931 0 86.25284116 9.58364903 125.53009124 27.96540204l-11.62606602-32.67867204c-3.14217999-8.79810401-1.885308-19.63862503 3.613507-28.75094706 5.02748801-8.48388603 12.88293803-13.98270102 21.36682405-15.23957305 14.45402802-2.19952601 33.30710806 4.71327001 42.57653909 30.79336408l39.59146805 110.76184522c2.82796201 8.16966803 2.51374401 17.28199003-1.09976298 24.98033103s-10.21208501 13.82559203-18.06753503 16.81066304l-111.54739023 49.4893351-0.31421801 0.157109c-5.18459701 1.885308-13.66848304 1.885308-13.82559202 1.88530802-13.35426503 0-29.69360106-11.46895703-34.24976207-24.03767706-6.127251-16.81066303 4.556161-40.84834009 20.58127904-46.66137309l36.29217908-13.19715603c-29.85071007-14.61113702-62.52938211-22.15236905-95.9935992-22.15236903-121.28814825 0-220.10970944 99.29288819-220.10970944 221.36658141s98.66445221 221.36658144 220.10970944 221.36658145c90.65189318 0 170.93459234-54.67393211 204.55591841-139.35568328 2.82796201-7.38412301 9.74075802-13.51137403 19.16729804-17.59620804 10.84052103-4.71327001 22.30947806-5.34170603 30.79336406-2.04241699 16.65355405 6.75568702 26.08009405 29.22227406 19.32440704 46.1900461z" fill="#2c3e50" p-id="39883"></path></svg>