<?xml version="1.0" standalone="no"?><!DOCTYPE svg PUBLIC "-//W3C//DTD SVG 1.1//EN" "http://www.w3.org/Graphics/SVG/1.1/DTD/svg11.dtd"><svg t="1756792388076" class="icon" viewBox="0 0 1024 1024" version="1.1" xmlns="http://www.w3.org/2000/svg" p-id="36961" xmlns:xlink="http://www.w3.org/1999/xlink" width="128" height="128"><path d="M512 73.290323c-242.064516 0-438.709677 196.645161-438.709677 438.709677s196.645161 438.709677 438.709677 438.709677 438.709677-196.645161 438.709677-438.709677c0.516129-242.064516-196.129032-438.709677-438.709677-438.709677z m0 816c-208 0-377.290323-169.290323-377.290323-377.290323s169.290323-377.290323 377.290323-377.290323 377.290323 169.290323 377.290323 377.290323-169.290323 377.290323-377.290323 377.290323z m0 0" p-id="36962"></path><path d="M251.354839 510.451613c0-103.741935 67.096774-165.16129 146.580645-165.16129 40.258065 0 72.258065 19.096774 92.387097 40.258064l-33.032258 40.258065c-16-15.483871-34.064516-26.322581-57.806452-26.322581-47.483871 0-83.612903 40.774194-83.612903 108.903226 0 68.645161 32.516129 109.935484 82.064516 109.935484 26.83871 0 48-12.903226 65.032258-30.967742l33.032258 39.225806c-25.806452 30.451613-59.870968 46.451613-100.645161 46.451613-79.483871 0-144-57.290323-144-162.580645zM527.483871 346.322581h66.580645l94.967742 173.935484 32.516129 70.709677h2.064516c-3.612903-34.064516-8.258065-77.419355-8.258064-114.064516V346.322581h61.935484v326.193548h-66.064517l-94.451612-174.451613-33.548388-70.193548h-2.064516c3.096774 35.096774 7.741935 76.387097 7.741936 114.064516v131.096774h-61.935484V346.322581z" p-id="36963"></path></svg>