<?xml version="1.0" standalone="no"?><!DOCTYPE svg PUBLIC "-//W3C//DTD SVG 1.1//EN" "http://www.w3.org/Graphics/SVG/1.1/DTD/svg11.dtd"><svg t="1758433104656" class="icon" viewBox="0 0 1024 1024" version="1.1" xmlns="http://www.w3.org/2000/svg" p-id="21562" xmlns:xlink="http://www.w3.org/1999/xlink" width="128" height="128"><path d="M554.666667 426.496a298.666667 298.666667 0 0 1 298.666666 298.666667v153.002666l97.834667-97.834666a42.666667 42.666667 0 0 1 60.330667 60.330666l-170.666667 170.666667a42.666667 42.666667 0 0 1-60.330667 0l-170.666666-170.666667a42.666667 42.666667 0 0 1 60.330666-60.330666L768 878.165333v-153.002666a213.333333 213.333333 0 0 0-213.333333-213.333334H256v375.296l99.925333-87.424a42.666667 42.666667 0 0 1 56.192 64.213334l-170.666666 149.333333a42.666667 42.666667 0 0 1-56.192 0l-170.666667-149.333333a42.666667 42.666667 0 0 1 56.192-64.213334L170.666667 887.125333V469.333333v-0.213333V335.786667A170.624 170.624 0 0 1 213.333333 0a170.624 170.624 0 0 1 42.666667 335.786667v90.709333h298.666667zM213.333333 255.744l-2.176 0.042667A85.290667 85.290667 0 1 1 298.666667 170.581333a85.290667 85.290667 0 0 1-85.333334 85.162667z" fill="#00E3FF" p-id="21563"></path></svg>