<?xml version="1.0" standalone="no"?><!DOCTYPE svg PUBLIC "-//W3C//DTD SVG 1.1//EN" "http://www.w3.org/Graphics/SVG/1.1/DTD/svg11.dtd"><svg t="1756791709305" class="icon" viewBox="0 0 1024 1024" version="1.1" xmlns="http://www.w3.org/2000/svg" p-id="27994" xmlns:xlink="http://www.w3.org/1999/xlink" width="128" height="128"><path d="M42.666667 128h938.666666v768H42.666667V128z m85.333333 85.333333v597.333334h768V213.333333H128z m85.333333 213.333334a85.333333 85.333333 0 0 1 85.333334-85.333334h170.666666v85.333334H298.666667v170.666666h170.666666v85.333334H298.666667a85.333333 85.333333 0 0 1-85.333334-85.333334v-170.666666z m341.333334 0a85.333333 85.333333 0 0 1 85.333333-85.333334h170.666667v85.333334h-170.666667v170.666666h170.666667v85.333334h-170.666667a85.333333 85.333333 0 0 1-85.333333-85.333334v-170.666666z" fill="#000000" p-id="27995"></path></svg>