<?xml version="1.0" standalone="no"?><!DOCTYPE svg PUBLIC "-//W3C//DTD SVG 1.1//EN" "http://www.w3.org/Graphics/SVG/1.1/DTD/svg11.dtd"><svg t="1756792094829" class="icon" viewBox="0 0 1024 1024" version="1.1" xmlns="http://www.w3.org/2000/svg" p-id="35007" xmlns:xlink="http://www.w3.org/1999/xlink" width="128" height="128"><path d="M625.92 732.8v241.472h-42.048V732.8h42.112z m307.84-51.52v245.952c0 30.144-16.128 45.248-48.384 45.248h-38.528l-10.304-38.528 40.32 1.344c9.856 0 14.72-6.592 14.72-19.712v-195.328h-166.144v-38.976h208.32zM218.048 637.248v178.176c0 18.944 14.784 35.136 34.56 37.888l6.016 0.448h177.92v89.6H258.56c-68.352 0-124.8-51.968-129.792-118.4l-0.384-9.6V637.312h89.6z m624.768 114.368v174.72h-168.96v-174.72h168.96z m-39.424 103.488H714.24v35.84h89.152v-35.84z m0-68.992H714.24v34.944h89.152v-34.944zM638.08 662.912c23.296 20.608 41.216 38.976 53.76 55.104l-31.36 21.504a607.168 607.168 0 0 0-53.76-57.344l31.36-19.264z m-26.88-103.936l41.216 8.96c-0.32 1.216-3.2 8.32-8.512 21.504h111.104v37.184h-59.136c8.96 12.544 16.576 25.216 22.848 38.08l-37.632 13.888c-8.704-18.56-18.56-35.84-29.568-51.968h-25.6c-10.688 18.816-22.784 35.84-36.224 51.072l-35.84-23.296c26.24-28.992 45.44-60.8 57.344-95.424z m188.16 0.448l40.768 8.96-7.168 21.056h125.44v37.184h-67.2c8.064 11.648 15.232 23.168 21.504 34.496l-37.632 13.888a358.272 358.272 0 0 0-28.224-48.384h-30.464a275.2 275.2 0 0 1-27.776 44.352l-35.84-23.296a249.6 249.6 0 0 0 46.592-88.256zM145.92 80.192l34.944 7.616-12.096 21.056h131.712v29.568h-152.32l-15.68 17.92h148.736c0 18.24-0.448 34.496-1.344 48.832h25.984v26.88h-27.776l-4.032 28.224h18.368v21.952h-23.296c-2.112 6.272-2.816 8.64-2.24 7.168l12.992 9.856a634.368 634.368 0 0 1-73.92 30.912c20.928-0.896 51.648-1.92 92.288-3.136 14.912-7.488 33.92-17.6 56.896-30.464l30.016 19.712c-51.072 28.992-107.52 52.288-169.344 69.888 67.84-3.008 125.44-6.4 172.928-10.304-14.656-10.752-24.96-18.048-30.912-21.952l30.016-18.368c43.584 27.52 76.288 51.072 98.112 70.784l-33.6 23.296a391.872 391.872 0 0 0-31.808-28.672c-60.352 3.584-97.088 5.696-110.208 6.272v52.416c0 23.616-13.76 35.392-41.216 35.392h-42.112l-7.168-34.048c14.336 1.472 26.752 2.24 37.184 2.24 8.64 0 12.992-4.16 12.992-12.544v-41.664c-45.696 2.368-94.848 4.352-147.392 5.824l-8.96-34.944c15.552 0.64 26.88 0.896 34.048 0.896a616.64 616.64 0 0 0 101.248-31.808l-102.144 3.584-6.272-29.568c14.912 0 25.536-1.344 31.808-4.032a598.4 598.4 0 0 0 59.136-26.432c1.792-4.8 3.008-8.192 3.584-10.304H106.112l8.064-50.176h-29.12v-26.88h32.256c1.792-13.12 3.136-25.856 4.032-38.08a288.384 288.384 0 0 1-17.472 15.232l-21.952-26.432c25.088-18.56 46.464-43.776 64.064-75.712z m58.24 338.688l22.4 25.536c-33.152 18.816-73.792 34.496-121.856 47.04l-15.68-33.152c46.016-9.856 84.352-23.04 115.136-39.424z m157.248-1.792c45.12 10.752 86.144 24.192 123.2 40.32l-21.504 33.6c-39.68-18.24-80.64-32.384-122.752-42.56l21.056-31.36z m409.6-228.48c68.352 0 124.8 51.968 129.792 118.4l0.384 9.6v154.368h-89.6V316.608a39.168 39.168 0 0 0-34.56-37.952l-6.08-0.384H600.32v-89.6h170.752zM348.864 79.808l36.288 8.064c-3.584 9.28-8.32 20.16-14.336 32.704h116.48v33.6h-25.984c-7.744 31.36-20.928 58.112-39.424 80.192a309.76 309.76 0 0 0 73.92 34.048l-19.264 33.6c-32.256-11.648-59.136-25.536-80.64-41.664-22.08 17.6-49.152 30.72-81.088 39.424L295.168 268.8c29.248-7.168 53.76-17.92 73.472-32.256a176.128 176.128 0 0 1-36.288-54.656c-7.168 8.96-14.336 17.024-21.504 24.192l-22.4-26.88c23.296-24.192 43.456-57.344 60.48-99.456zM173.312 228.48h-25.088l-5.376 31.808h97.664c2.368-11.328 4.16-21.952 5.376-31.808H176.896c17.024 4.48 32.128 9.856 45.248 16.128l-9.856 15.232a349.312 349.312 0 0 0-48.384-17.472l9.408-13.888z m253.12-74.368h-71.68c7.168 22.4 20.16 42.112 38.976 59.136 14.912-17.6 25.856-37.312 32.704-59.136z m-177.408 23.744H154.048a544 544 0 0 1-3.584 31.808h62.272a251.52 251.52 0 0 0-42.112-16.576l10.304-14.784c15.232 4.16 30.336 10.176 45.248 17.92l-8.512 13.44h30.016l1.344-31.808z" p-id="35008"></path></svg>