<?xml version="1.0" standalone="no"?><!DOCTYPE svg PUBLIC "-//W3C//DTD SVG 1.1//EN" "http://www.w3.org/Graphics/SVG/1.1/DTD/svg11.dtd"><svg t="1756906266949" class="icon" viewBox="0 0 1024 1024" version="1.1" xmlns="http://www.w3.org/2000/svg" p-id="65073" xmlns:xlink="http://www.w3.org/1999/xlink" width="128" height="128"><path d="M62.3104 51.2C30.208 51.2 4.2496 77.1584 4.2496 109.2096V747.52c0 32.0512 26.0096 58.0096 58.0608 58.0096h335.104l-8.96 47.2576A58.0096 58.0096 0 0 0 445.4912 921.6h516.1984c32.0512 0 58.0608-25.9584 58.0608-58.0096V225.28c0-32.0512-26.0096-58.0096-58.0608-58.0096h-441.856l-13.312-69.0176A58.0096 58.0096 0 0 0 449.536 51.2H62.3104zM445.44 863.5904l10.9568-58.0608h115.8656c36.4544 0 63.8464-33.1776 56.9856-68.9664l-11.4176-59.4432a408.7808 408.7808 0 0 0 98.816-55.296c38.656 29.8496 88.3712 48.9984 155.136 66.9184 6.9632-13.1584 21.248-34.56 31.8464-45.056-63.0272-14.592-111.616-30.464-149.1968-55.6032 38.0928-39.3728 67.584-88.3712 88.9856-148.8896h53.6064v-44.3392h-153.3952l-14.848-53.504h-45.312l14.848 53.504h-134.8096L530.9952 225.28h430.6944v638.3104H445.4912z m126.6176-424.448h219.904c-17.408 47.8208-41.728 86.8864-73.4208 118.4256-21.504-23.2448-37.9904-52.6336-50.688-90.9312l-43.8784 13.5168c16.128 45.8752 34.6624 80.7936 57.9072 108.3392-21.8624 15.5648-46.336 28.672-73.5232 39.5264l-36.352-188.8256zM87.552 573.44V324.1984h184.832v42.1888H137.9328v55.2448h125.1328v41.984H137.9328v67.84h139.264v41.984H87.552z m396.1344 0h-47.7696V481.28c0-19.456-1.024-32.0512-3.072-37.7344a26.368 26.368 0 0 0-26.5216-18.176 38.2976 38.2976 0 0 0-22.272 6.8096 34.7136 34.7136 0 0 0-13.6192 18.0224c-2.3552 7.4752-3.584 21.2992-3.584 41.472V573.44h-47.7184V392.9088H363.52v26.5216c15.7696-20.4288 35.584-30.6176 59.4944-30.6176 10.5472 0 20.1728 1.9456 28.928 5.7856a47.104 47.104 0 0 1 19.712 14.4384c4.5056 5.888 7.68 12.5952 9.3696 20.0704 1.792 7.4752 2.7136 18.176 2.7136 32.1536V573.44z" p-id="65074"></path></svg>