<?xml version="1.0" standalone="no"?><!DOCTYPE svg PUBLIC "-//W3C//DTD SVG 1.1//EN" "http://www.w3.org/Graphics/SVG/1.1/DTD/svg11.dtd"><svg t="1755093519391" class="icon" viewBox="0 0 1024 1024" version="1.1" xmlns="http://www.w3.org/2000/svg" p-id="7908" data-darkreader-inline-fill="" xmlns:xlink="http://www.w3.org/1999/xlink" width="128" height="128"><path d="M975.8208 557.9776l-162.3552-405.8624C801.4848 122.0608 772.4032 102.4 740.0448 102.4L283.9552 102.4C251.5968 102.4 222.5152 122.0608 210.5344 152.1152l-162.3552 405.8624c-14.7456 36.9152-19.0976 77.1584-12.5952 116.3264l30.208 181.1968C72.1408 893.6448 105.1136 921.6 143.7696 921.6l736.4096 0c38.656 0 71.6288-27.9552 77.9776-66.0992l30.208-181.1968C994.9696 635.136 990.6176 594.8928 975.8208 557.9776zM282.624 245.0432l83.9168-57.9584 146.8416 102.9632 146.8416-102.9632 83.9168 57.9584-146.8928 104.0896 149.9136 105.472-83.9168 59.9552-149.8624-106.2912L363.52 514.56 279.6032 454.6048l149.9136-105.472L282.624 245.0432zM868.3008 780.544C864.6144 802.8672 845.312 819.2 822.6816 819.2L201.3184 819.2c-22.6304 0-41.9328-16.3328-45.6192-38.656l-18.688-112.2816C132.2496 640.0512 154.0096 614.4 182.6304 614.4l658.7904 0c28.5696 0 50.3296 25.6512 45.6192 53.8624L868.3008 780.544z" p-id="7909"></path></svg>