<?xml version="1.0" standalone="no"?>
<!DOCTYPE svg PUBLIC "-//W3C//DTD SVG 20010904//EN"
 "http://www.w3.org/TR/2001/REC-SVG-20010904/DTD/svg10.dtd">
<svg version="1.0" xmlns="http://www.w3.org/2000/svg"
 width="74.000000pt" height="112.000000pt" viewBox="0 0 74.000000 112.000000"
 preserveAspectRatio="xMidYMid meet">
<metadata>
Created by potrace 1.16, written by Peter Selinger 2001-2019
</metadata>
<g transform="translate(0.000000,112.000000) scale(0.100000,-0.100000)"
fill="#000000" stroke="none">
<path d="M130 1114 c0 -3 30 -39 67 -80 l66 -74 141 0 141 1 85 79 85 80 -292
0 c-161 0 -293 -3 -293 -6z"/>
<path d="M90 1075 c0 -5 -9 -100 -19 -210 l-17 -200 37 -40 38 -40 29 28 c29
28 30 32 36 150 4 67 9 138 12 157 4 32 -1 41 -55 100 -33 36 -60 61 -61 55z"/>
<path d="M662 1017 l-63 -64 -17 -157 -16 -157 26 -26 26 -26 42 40 43 39 13
160 c7 87 15 180 18 207 3 26 2 47 -2 47 -4 0 -36 -29 -70 -63z"/>
<path d="M79 493 l-42 -40 -17 -204 c-10 -112 -16 -206 -13 -209 2 -2 33 25
69 61 l65 65 17 158 16 157 -26 26 -26 26 -43 -40z"/>
<path d="M578 503 c-24 -26 -27 -37 -36 -183 l-10 -155 55 -63 c31 -35 57 -61
60 -59 2 3 12 96 21 208 l18 204 -34 37 c-19 21 -37 38 -41 38 -4 0 -19 -12
-33 -27z"/>
<path d="M110 80 l-85 -80 293 0 c160 0 292 3 292 6 0 3 -30 39 -66 80 l-66
74 -142 0 -141 -1 -85 -79z"/>
</g>
</svg>
