<?xml version="1.0" standalone="no"?>
<!DOCTYPE svg PUBLIC "-//W3C//DTD SVG 20010904//EN"
 "http://www.w3.org/TR/2001/REC-SVG-20010904/DTD/svg10.dtd">
<svg version="1.0" xmlns="http://www.w3.org/2000/svg"
 width="26.000000pt" height="128.000000pt" viewBox="0 0 26.000000 128.000000"
 preserveAspectRatio="xMidYMid meet">
<metadata>
Created by potrace 1.16, written by Peter Selinger 2001-2019
</metadata>
<g transform="translate(0.000000,128.000000) scale(0.100000,-0.100000)"
fill="#000000" stroke="none">
<path d="M172 1201 l-84 -76 -19 -175 c-23 -218 -24 -209 9 -247 l27 -31 54
47 54 48 22 254 c12 140 22 255 21 256 -1 0 -39 -33 -84 -76z"/>
<path d="M68 576 l-38 -33 -11 -191 c-11 -184 -11 -191 8 -216 39 -49 123
-138 123 -129 0 4 9 109 20 233 11 124 20 236 19 250 0 15 -17 44 -42 72 l-42
46 -37 -32z"/>
</g>
</svg>
