<?xml version="1.0" standalone="no"?>
<!DOCTYPE svg PUBLIC "-//W3C//DTD SVG 20010904//EN"
 "http://www.w3.org/TR/2001/REC-SVG-20010904/DTD/svg10.dtd">
<svg version="1.0" xmlns="http://www.w3.org/2000/svg"
 width="63.000000pt" height="110.000000pt" viewBox="0 0 63.000000 110.000000"
 preserveAspectRatio="xMidYMid meet">
<metadata>
Created by potrace 1.16, written by Peter Selinger 2001-2019
</metadata>
<g transform="translate(0.000000,110.000000) scale(0.100000,-0.100000)"
fill="#000000" stroke="none">
<path d="M20 1094 c0 -3 30 -39 67 -80 l66 -74 141 0 141 1 85 79 85 80 -292
0 c-161 0 -293 -3 -293 -6z"/>
<path d="M552 997 l-63 -64 -17 -157 -16 -157 26 -26 26 -26 42 40 43 39 13
160 c7 87 15 180 18 207 3 26 2 47 -2 47 -4 0 -36 -29 -70 -63z"/>
<path d="M468 483 c-24 -26 -27 -37 -36 -183 l-10 -155 55 -63 c31 -35 57 -61
60 -59 2 3 12 96 21 208 l18 204 -34 37 c-19 21 -37 38 -41 38 -4 0 -19 -12
-33 -27z"/>
</g>
</svg>
